<svg width="172" height="36" viewBox="0 0 172 36" fill="none" xmlns="http://www.w3.org/2000/svg">
<path d="M18.0013 9.5625C18.0013 14.2224 14.3008 18 9.73601 18H1.4707V9.5625C1.4707 4.90259 5.1712 1.125 9.73601 1.125C14.3008 1.125 18.0013 4.90259 18.0013 9.5625Z" fill="#FAFAFA"/>
<path d="M18 26.4375C18 21.7776 21.7005 18 26.2653 18H34.5306V26.4375C34.5306 31.0974 30.8301 34.875 26.2653 34.875C21.7005 34.875 18 31.0974 18 26.4375Z" fill="#FAFAFA"/>
<path d="M1.4707 26.4375C1.4707 31.0974 5.1712 34.875 9.73601 34.875H18.0013V26.4375C18.0013 21.7776 14.3008 18 9.73601 18C5.1712 18 1.4707 21.7776 1.4707 26.4375Z" fill="#FAFAFA"/>
<path d="M34.5306 9.5625C34.5306 4.90259 30.8301 1.125 26.2653 1.125H18V9.5625C18 14.2224 21.7005 18 26.2653 18C30.8301 18 34.5306 14.2224 34.5306 9.5625Z" fill="#FAFAFA"/>
<path d="M47.472 10.9H57.753V13.246H50.117V17.915H56.419V20.192H50.117V27H47.472V10.9ZM69.5231 15.224V27H67.3381L67.0621 25.505C66.1651 26.609 64.9461 27.138 63.4281 27.138C62.0481 27.138 60.9211 26.724 60.0701 25.85C59.1961 24.999 58.7821 23.619 58.7821 21.71V15.224H61.2661V21.457C61.2661 22.607 61.4961 23.481 61.9561 24.079C62.4161 24.677 63.0831 24.976 64.0031 24.976C64.9461 24.976 65.6821 24.631 66.2341 23.941C66.7631 23.251 67.0391 22.285 67.0391 21.066V15.224H69.5231ZM78.48 15.224V17.547H77.376C76.341 17.547 75.605 17.892 75.145 18.559C74.685 19.226 74.455 20.077 74.455 21.089V27H71.971V15.224H74.179L74.455 16.995C74.777 16.443 75.214 16.029 75.766 15.707C76.295 15.385 77.008 15.224 77.928 15.224H78.48ZM89.6709 16.374C90.5449 17.248 91.0049 18.628 91.0049 20.514V27H88.4979V20.652C88.4979 19.548 88.2449 18.697 87.7849 18.099C87.3019 17.524 86.6119 17.225 85.6919 17.225C84.7029 17.225 83.9209 17.57 83.3689 18.26C82.8169 18.95 82.5409 19.87 82.5409 21.066V27H80.0569V15.224H82.2189L82.4949 16.765C83.3689 15.661 84.6339 15.086 86.2669 15.086C87.6469 15.086 88.7969 15.523 89.6709 16.374ZM95.5869 10.946C95.8629 11.222 96.0239 11.59 96.0239 12.004C96.0239 12.441 95.8629 12.809 95.5869 13.085C95.2879 13.361 94.9199 13.499 94.5059 13.499C94.0689 13.499 93.7009 13.361 93.4249 13.085C93.1259 12.809 92.9879 12.441 92.9879 12.004C92.9879 11.59 93.1259 11.222 93.4249 10.946C93.7009 10.67 94.0689 10.509 94.5059 10.509C94.9199 10.509 95.2879 10.67 95.5869 10.946ZM93.2639 15.224H95.7479V27H93.2639V15.224ZM100.437 21.756C100.506 22.722 100.897 23.481 101.587 24.056C102.277 24.631 103.197 24.907 104.324 24.907C105.29 24.907 106.095 24.7 106.693 24.286C107.291 23.872 107.613 23.274 107.613 22.515C107.613 21.986 107.429 21.572 107.107 21.25C106.785 20.928 106.325 20.698 105.773 20.514C105.198 20.353 104.393 20.169 103.381 19.985C102.323 19.801 101.426 19.571 100.69 19.272C99.9539 18.973 99.3329 18.513 98.8729 17.892C98.4129 17.294 98.1829 16.489 98.1829 15.477C98.1829 14.557 98.4129 13.752 98.8959 13.016C99.3789 12.303 100.046 11.751 100.92 11.337C101.794 10.946 102.783 10.739 103.91 10.739C105.06 10.739 106.072 10.969 106.992 11.383C107.889 11.82 108.602 12.418 109.131 13.154C109.637 13.913 109.936 14.764 109.982 15.73H107.383C107.291 14.902 106.923 14.235 106.302 13.729C105.658 13.223 104.876 12.97 103.91 12.97C102.967 12.97 102.208 13.177 101.656 13.591C101.104 14.005 100.828 14.557 100.828 15.293C100.828 15.822 100.989 16.236 101.311 16.535C101.633 16.857 102.093 17.087 102.645 17.225C103.197 17.386 103.979 17.547 105.014 17.731C106.049 17.915 106.946 18.168 107.705 18.467C108.441 18.789 109.062 19.226 109.545 19.824C110.005 20.422 110.258 21.227 110.258 22.193C110.258 23.159 110.005 24.01 109.499 24.746C108.993 25.505 108.28 26.103 107.383 26.517C106.463 26.931 105.451 27.138 104.301 27.138C103.013 27.138 101.909 26.908 100.943 26.448C99.9769 25.988 99.2179 25.367 98.6659 24.539C98.1139 23.711 97.8379 22.768 97.8379 21.71L100.437 21.756ZM121.51 15.822C122.338 16.305 123.005 16.995 123.488 17.915C123.948 18.835 124.201 19.893 124.201 21.112C124.201 22.308 123.948 23.366 123.488 24.286C123.005 25.206 122.338 25.896 121.51 26.402C120.659 26.908 119.693 27.138 118.635 27.138C117.761 27.138 117.002 26.977 116.358 26.655C115.714 26.333 115.185 25.896 114.817 25.344V31.6H112.333V15.224H114.495L114.794 16.972C115.737 15.73 117.025 15.086 118.635 15.086C119.693 15.086 120.659 15.339 121.51 15.822ZM120.705 23.941C121.349 23.205 121.671 22.262 121.671 21.112C121.671 19.962 121.349 19.019 120.705 18.283C120.061 17.57 119.233 17.202 118.221 17.202C117.186 17.202 116.358 17.57 115.737 18.283C115.093 18.996 114.794 19.916 114.794 21.066C114.794 22.262 115.093 23.205 115.737 23.941C116.358 24.677 117.186 25.045 118.221 25.045C119.233 25.045 120.061 24.677 120.705 23.941ZM135.806 16.374C136.68 17.248 137.14 18.628 137.14 20.514V27H134.656V20.652C134.656 19.548 134.403 18.697 133.92 18.099C133.437 17.524 132.747 17.225 131.827 17.225C130.838 17.225 130.056 17.57 129.504 18.26C128.952 18.95 128.676 19.87 128.676 21.043V27H126.192V10.9H128.676V16.926C129.55 15.707 130.792 15.086 132.379 15.086C133.782 15.086 134.932 15.523 135.806 16.374ZM139.675 17.961C140.158 17.041 140.825 16.351 141.699 15.845C142.573 15.339 143.562 15.086 144.689 15.086C145.816 15.086 146.805 15.316 147.679 15.776C148.553 16.236 149.22 16.903 149.726 17.731C150.232 18.582 150.485 19.571 150.508 20.698C150.508 21.02 150.485 21.319 150.439 21.641H141.561V21.779C141.607 22.814 141.929 23.619 142.527 24.217C143.102 24.815 143.884 25.114 144.85 25.114C145.609 25.114 146.253 24.953 146.782 24.585C147.288 24.217 147.633 23.711 147.817 23.044H150.301C150.071 24.24 149.496 25.229 148.553 25.988C147.61 26.77 146.437 27.138 145.034 27.138C143.792 27.138 142.734 26.908 141.814 26.402C140.894 25.896 140.204 25.206 139.698 24.286C139.192 23.389 138.962 22.331 138.962 21.135C138.962 19.939 139.192 18.881 139.675 17.961ZM147.978 19.824C147.863 18.973 147.518 18.306 146.943 17.823C146.368 17.34 145.655 17.087 144.781 17.087C143.953 17.087 143.263 17.34 142.665 17.846C142.067 18.352 141.745 18.996 141.653 19.824H147.978ZM159.025 15.224V17.547H157.921C156.886 17.547 156.15 17.892 155.69 18.559C155.23 19.226 155 20.077 155 21.089V27H152.516V15.224H154.724L155 16.995C155.322 16.443 155.759 16.029 156.311 15.707C156.84 15.385 157.553 15.224 158.473 15.224H159.025ZM160.316 17.961C160.799 17.041 161.466 16.351 162.34 15.845C163.214 15.339 164.203 15.086 165.33 15.086C166.457 15.086 167.446 15.316 168.32 15.776C169.194 16.236 169.861 16.903 170.367 17.731C170.873 18.582 171.126 19.571 171.149 20.698C171.149 21.02 171.126 21.319 171.08 21.641H162.202V21.779C162.248 22.814 162.57 23.619 163.168 24.217C163.743 24.815 164.525 25.114 165.491 25.114C166.25 25.114 166.894 24.953 167.423 24.585C167.929 24.217 168.274 23.711 168.458 23.044H170.942C170.712 24.24 170.137 25.229 169.194 25.988C168.251 26.77 167.078 27.138 165.675 27.138C164.433 27.138 163.375 26.908 162.455 26.402C161.535 25.896 160.845 25.206 160.339 24.286C159.833 23.389 159.603 22.331 159.603 21.135C159.603 19.939 159.833 18.881 160.316 17.961ZM168.619 19.824C168.504 18.973 168.159 18.306 167.584 17.823C167.009 17.34 166.296 17.087 165.422 17.087C164.594 17.087 163.904 17.34 163.306 17.846C162.708 18.352 162.386 18.996 162.294 19.824H168.619Z" fill="#FAFAFA"/>
</svg>
