<svg width="125" height="22" viewBox="0 0 125 22" fill="none" xmlns="http://www.w3.org/2000/svg">
<path d="M0.472 0.899999H10.753V3.246H3.117V7.915H9.419V10.192H3.117V17H0.472V0.899999ZM22.5231 5.224V17H20.3381L20.0621 15.505C19.1651 16.609 17.9461 17.138 16.4281 17.138C15.0481 17.138 13.9211 16.724 13.0701 15.85C12.1961 14.999 11.7821 13.619 11.7821 11.71V5.224H14.2661V11.457C14.2661 12.607 14.4961 13.481 14.9561 14.079C15.4161 14.677 16.0831 14.976 17.0031 14.976C17.9461 14.976 18.6821 14.631 19.2341 13.941C19.7631 13.251 20.0391 12.285 20.0391 11.066V5.224H22.5231ZM31.48 5.224V7.547H30.376C29.341 7.547 28.605 7.892 28.145 8.559C27.685 9.226 27.455 10.077 27.455 11.089V17H24.971V5.224H27.179L27.455 6.995C27.777 6.443 28.214 6.029 28.766 5.707C29.295 5.385 30.008 5.224 30.928 5.224H31.48ZM42.6709 6.374C43.5449 7.248 44.0049 8.628 44.0049 10.514V17H41.4979V10.652C41.4979 9.548 41.2449 8.697 40.7849 8.099C40.3019 7.524 39.6119 7.225 38.6919 7.225C37.7029 7.225 36.9209 7.57 36.3689 8.26C35.8169 8.95 35.5409 9.87 35.5409 11.066V17H33.0569V5.224H35.2189L35.4949 6.765C36.3689 5.661 37.6339 5.086 39.2669 5.086C40.6469 5.086 41.7969 5.523 42.6709 6.374ZM48.5869 0.946C48.8629 1.222 49.0239 1.59 49.0239 2.004C49.0239 2.441 48.8629 2.809 48.5869 3.085C48.2879 3.361 47.9199 3.499 47.5059 3.499C47.0689 3.499 46.7009 3.361 46.4249 3.085C46.1259 2.809 45.9879 2.441 45.9879 2.004C45.9879 1.59 46.1259 1.222 46.4249 0.946C46.7009 0.669999 47.0689 0.509 47.5059 0.509C47.9199 0.509 48.2879 0.669999 48.5869 0.946ZM46.2639 5.224H48.7479V17H46.2639V5.224ZM53.4369 11.756C53.5059 12.722 53.8969 13.481 54.5869 14.056C55.2769 14.631 56.1969 14.907 57.3239 14.907C58.2899 14.907 59.0949 14.7 59.6929 14.286C60.2909 13.872 60.6129 13.274 60.6129 12.515C60.6129 11.986 60.4289 11.572 60.1069 11.25C59.7849 10.928 59.3249 10.698 58.7729 10.514C58.1979 10.353 57.3929 10.169 56.3809 9.985C55.3229 9.801 54.4259 9.571 53.6899 9.272C52.9539 8.973 52.3329 8.513 51.8729 7.892C51.4129 7.294 51.1829 6.489 51.1829 5.477C51.1829 4.557 51.4129 3.752 51.8959 3.016C52.3789 2.303 53.0459 1.751 53.9199 1.337C54.7939 0.946 55.7829 0.739 56.9099 0.739C58.0599 0.739 59.0719 0.968999 59.9919 1.383C60.8889 1.82 61.6019 2.418 62.1309 3.154C62.6369 3.913 62.9359 4.764 62.9819 5.73H60.3829C60.2909 4.902 59.9229 4.235 59.3019 3.729C58.6579 3.223 57.8759 2.97 56.9099 2.97C55.9669 2.97 55.2079 3.177 54.6559 3.591C54.1039 4.005 53.8279 4.557 53.8279 5.293C53.8279 5.822 53.9889 6.236 54.3109 6.535C54.6329 6.857 55.0929 7.087 55.6449 7.225C56.1969 7.386 56.9789 7.547 58.0139 7.731C59.0489 7.915 59.9459 8.168 60.7049 8.467C61.4409 8.789 62.0619 9.226 62.5449 9.824C63.0049 10.422 63.2579 11.227 63.2579 12.193C63.2579 13.159 63.0049 14.01 62.4989 14.746C61.9929 15.505 61.2799 16.103 60.3829 16.517C59.4629 16.931 58.4509 17.138 57.3009 17.138C56.0129 17.138 54.9089 16.908 53.9429 16.448C52.9769 15.988 52.2179 15.367 51.6659 14.539C51.1139 13.711 50.8379 12.768 50.8379 11.71L53.4369 11.756ZM74.5103 5.822C75.3383 6.305 76.0053 6.995 76.4883 7.915C76.9483 8.835 77.2013 9.893 77.2013 11.112C77.2013 12.308 76.9483 13.366 76.4883 14.286C76.0053 15.206 75.3383 15.896 74.5103 16.402C73.6593 16.908 72.6933 17.138 71.6353 17.138C70.7613 17.138 70.0023 16.977 69.3583 16.655C68.7143 16.333 68.1853 15.896 67.8173 15.344V21.6H65.3333V5.224H67.4953L67.7943 6.972C68.7373 5.73 70.0253 5.086 71.6353 5.086C72.6933 5.086 73.6593 5.339 74.5103 5.822ZM73.7053 13.941C74.3493 13.205 74.6713 12.262 74.6713 11.112C74.6713 9.962 74.3493 9.019 73.7053 8.283C73.0613 7.57 72.2333 7.202 71.2213 7.202C70.1863 7.202 69.3583 7.57 68.7373 8.283C68.0933 8.996 67.7943 9.916 67.7943 11.066C67.7943 12.262 68.0933 13.205 68.7373 13.941C69.3583 14.677 70.1863 15.045 71.2213 15.045C72.2333 15.045 73.0613 14.677 73.7053 13.941ZM88.8057 6.374C89.6797 7.248 90.1397 8.628 90.1397 10.514V17H87.6557V10.652C87.6557 9.548 87.4027 8.697 86.9197 8.099C86.4367 7.524 85.7467 7.225 84.8267 7.225C83.8377 7.225 83.0557 7.57 82.5037 8.26C81.9517 8.95 81.6757 9.87 81.6757 11.043V17H79.1917V0.899999H81.6757V6.926C82.5497 5.707 83.7917 5.086 85.3787 5.086C86.7817 5.086 87.9317 5.523 88.8057 6.374ZM92.6747 7.961C93.1577 7.041 93.8247 6.351 94.6987 5.845C95.5727 5.339 96.5617 5.086 97.6887 5.086C98.8157 5.086 99.8047 5.316 100.679 5.776C101.553 6.236 102.22 6.903 102.726 7.731C103.232 8.582 103.485 9.571 103.508 10.698C103.508 11.02 103.485 11.319 103.439 11.641H94.5607V11.779C94.6067 12.814 94.9287 13.619 95.5267 14.217C96.1017 14.815 96.8837 15.114 97.8497 15.114C98.6087 15.114 99.2527 14.953 99.7817 14.585C100.288 14.217 100.633 13.711 100.817 13.044H103.301C103.071 14.24 102.496 15.229 101.553 15.988C100.61 16.77 99.4367 17.138 98.0337 17.138C96.7917 17.138 95.7337 16.908 94.8137 16.402C93.8937 15.896 93.2037 15.206 92.6977 14.286C92.1917 13.389 91.9617 12.331 91.9617 11.135C91.9617 9.939 92.1917 8.881 92.6747 7.961ZM100.978 9.824C100.863 8.973 100.518 8.306 99.9427 7.823C99.3677 7.34 98.6547 7.087 97.7807 7.087C96.9527 7.087 96.2627 7.34 95.6647 7.846C95.0667 8.352 94.7447 8.996 94.6527 9.824H100.978ZM112.025 5.224V7.547H110.921C109.886 7.547 109.15 7.892 108.69 8.559C108.23 9.226 108 10.077 108 11.089V17H105.516V5.224H107.724L108 6.995C108.322 6.443 108.759 6.029 109.311 5.707C109.84 5.385 110.553 5.224 111.473 5.224H112.025ZM113.316 7.961C113.799 7.041 114.466 6.351 115.34 5.845C116.214 5.339 117.203 5.086 118.33 5.086C119.457 5.086 120.446 5.316 121.32 5.776C122.194 6.236 122.861 6.903 123.367 7.731C123.873 8.582 124.126 9.571 124.149 10.698C124.149 11.02 124.126 11.319 124.08 11.641H115.202V11.779C115.248 12.814 115.57 13.619 116.168 14.217C116.743 14.815 117.525 15.114 118.491 15.114C119.25 15.114 119.894 14.953 120.423 14.585C120.929 14.217 121.274 13.711 121.458 13.044H123.942C123.712 14.24 123.137 15.229 122.194 15.988C121.251 16.77 120.078 17.138 118.675 17.138C117.433 17.138 116.375 16.908 115.455 16.402C114.535 15.896 113.845 15.206 113.339 14.286C112.833 13.389 112.603 12.331 112.603 11.135C112.603 9.939 112.833 8.881 113.316 7.961ZM121.619 9.824C121.504 8.973 121.159 8.306 120.584 7.823C120.009 7.34 119.296 7.087 118.422 7.087C117.594 7.087 116.904 7.34 116.306 7.846C115.708 8.352 115.386 8.996 115.294 9.824H121.619Z" fill="#FAFAFA"/>
</svg>
