<svg xmlns="http://www.w3.org/2000/svg" width="36" height="36" fill="none" viewBox="0 0 36 36"><path fill="#FAFAFA" d="M18.0013 9.5625C18.0013 14.2224 14.3008 18 9.73601 18H1.4707V9.5625C1.4707 4.90259 5.1712 1.125 9.73601 1.125C14.3008 1.125 18.0013 4.90259 18.0013 9.5625Z"/><path fill="#FAFAFA" d="M18 26.4375C18 21.7776 21.7005 18 26.2653 18H34.5306V26.4375C34.5306 31.0974 30.8301 34.875 26.2653 34.875C21.7005 34.875 18 31.0974 18 26.4375Z"/><path fill="#FAFAFA" d="M1.4707 26.4375C1.4707 31.0974 5.1712 34.875 9.73601 34.875H18.0013V26.4375C18.0013 21.7776 14.3008 18 9.73601 18C5.1712 18 1.4707 21.7776 1.4707 26.4375Z"/><path fill="#FAFAFA" d="M34.5306 9.5625C34.5306 4.90259 30.8301 1.125 26.2653 1.125H18V9.5625C18 14.2224 21.7005 18 26.2653 18C30.8301 18 34.5306 14.2224 34.5306 9.5625Z"/></svg>