<svg xmlns="http://www.w3.org/2000/svg" width="72" height="72" fill="none" viewBox="0 0 72 72"><path stroke="#1E1E1E" stroke-linecap="round" stroke-linejoin="round" stroke-width="4.5" d="M36 66C33.5454 66 31.2006 65.0094 26.5108 63.0285C14.8369 58.0971 9 55.6314 9 51.4839C9 50.3226 9 30.1935 9 21M36 66C38.4546 66 40.7994 65.0094 45.4893 63.0285C57.1632 58.0971 63 55.6314 63 51.4839V21M36 66V34.0644"/><path stroke="#1E1E1E" stroke-linecap="round" stroke-linejoin="round" stroke-width="4.5" d="M24.9778 29.0741L16.2142 24.8336C11.4047 22.5063 9 21.3427 9 19.5C9 17.6573 11.4047 16.4937 16.2142 14.1664L24.9778 9.92586C30.3864 7.30863 33.0909 6 36 6C38.9091 6 41.6136 7.3086 47.0223 9.92586L55.7859 14.1664C60.5952 16.4937 63 17.6573 63 19.5C63 21.3427 60.5952 22.5063 55.7859 24.8336L47.0223 29.0741C41.6136 31.6914 38.9091 33 36 33C33.0909 33 30.3864 31.6914 24.9778 29.0741Z"/><path stroke="#1E1E1E" stroke-linecap="round" stroke-linejoin="round" stroke-width="4.5" d="M18 36L24 39"/><path stroke="#1E1E1E" stroke-linecap="round" stroke-linejoin="round" stroke-width="4.5" d="M51 12L21 27"/></svg>