<svg width="20" height="18" viewBox="0 0 20 18" fill="none" xmlns="http://www.w3.org/2000/svg">
<path d="M8.67663 1.31229C9.09317 0.0303019 10.9069 0.0303009 11.3234 1.31229L12.4993 4.93129C12.6856 5.50462 13.2198 5.89279 13.8227 5.89279H17.6279C18.9759 5.89279 19.5363 7.6177 18.4458 8.41001L15.3673 10.6467C14.8796 11.001 14.6755 11.6291 14.8618 12.2024L16.0377 15.8214C16.4542 17.1034 14.9869 18.1695 13.8964 17.3771L10.8179 15.1405C10.3302 14.7861 9.66982 14.7861 9.18212 15.1405L6.10361 17.3771C5.01308 18.1695 3.54579 17.1034 3.96233 15.8214L5.13822 12.2024C5.3245 11.6291 5.12043 11.001 4.63273 10.6467L1.55423 8.41001C0.463698 7.6177 1.02415 5.89279 2.37212 5.89279H6.17736C6.78019 5.89279 7.31446 5.50462 7.50074 4.93129L8.67663 1.31229Z" fill="#F0A111"/>
</svg>
