<svg width="72" height="72" viewBox="0 0 72 72" fill="none" xmlns="http://www.w3.org/2000/svg">
<path d="M51 60C54.3137 60 57 57.3137 57 54C57 50.6863 54.3137 48 51 48C47.6863 48 45 50.6863 45 54C45 57.3137 47.6863 60 51 60Z" stroke="#1E1E1E" stroke-width="4.5"/>
<path d="M21 60C24.3137 60 27 57.3137 27 54C27 50.6863 24.3137 48 21 48C17.6863 48 15 50.6863 15 54C15 57.3137 17.6863 60 21 60Z" stroke="#1E1E1E" stroke-width="4.5"/>
<path d="M15 53.9172C11.7098 53.7534 9.6573 53.2638 8.19669 51.8034C6.73608 50.3427 6.24666 48.2901 6.08265 45M27 54H45M57 53.9172C60.2901 53.7534 62.3427 53.2638 63.8034 51.8034C66 49.6065 66 46.071 66 39V33H51.9C49.6665 33 48.5496 33 47.646 32.7063C45.8193 32.1129 44.3871 30.6807 43.7937 28.8541C43.5 27.9503 43.5 26.8335 43.5 24.6C43.5 21.2497 43.5 19.5745 43.0596 18.2188C42.1692 15.4789 40.0212 13.3307 37.2813 12.4405C35.9256 12 34.2504 12 30.9 12H6" stroke="#1E1E1E" stroke-width="4.5" stroke-linecap="round" stroke-linejoin="round"/>
<path d="M6 24H24" stroke="#1E1E1E" stroke-width="4.5" stroke-linecap="round" stroke-linejoin="round"/>
<path d="M6 33H18" stroke="#1E1E1E" stroke-width="4.5" stroke-linecap="round" stroke-linejoin="round"/>
<path d="M43.5 18H48.9636C53.3298 18 55.5126 18 57.2892 19.0611C59.0658 20.1223 60.1008 22.0443 62.1708 25.8885L66 33" stroke="#1E1E1E" stroke-width="4.5" stroke-linecap="round" stroke-linejoin="round"/>
</svg>
